<?xml version="1.0" encoding="utf-8" standalone="no"?>
<!DOCTYPE svg PUBLIC "-//W3C//DTD SVG 1.1//EN"
  "http://www.w3.org/Graphics/SVG/1.1/DTD/svg11.dtd">
<svg xmlns:xlink="http://www.w3.org/1999/xlink" width="829.19952pt" height="267.59952pt" viewBox="0 0 829.19952 267.59952" xmlns="http://www.w3.org/2000/svg" version="1.1">
 <metadata>
  <rdf:RDF xmlns:dc="http://purl.org/dc/elements/1.1/" xmlns:cc="http://creativecommons.org/ns#" xmlns:rdf="http://www.w3.org/1999/02/22-rdf-syntax-ns#">
   <cc:Work>
    <dc:type rdf:resource="http://purl.org/dc/dcmitype/StillImage"/>
    <dc:date>2026-10-11</dc:date>
    <dc:format>image/svg+xml</dc:format>
    <dc:creator>
     <cc:Agent>
      <dc:title>Matplotlib v3.11.2, https://matplotlib.org/</dc:title>
     </cc:Agent>
    </dc:creator>
   </cc:Work>
  </rdf:RDF>
 </metadata>
 <defs>
  <style type="text/css">*{stroke-linejoin: round; stroke-linecap: butt}</style>
 </defs>
 <g id="figure_1">
  <g id="patch_1">
   <path d="M 0 267.59952
L 829.19952 267.59952
L 829.19952 0
L 0 0
z
" style="fill: #ffffff"/>
  </g>
  <g id="axes_1">
   <g id="patch_2">
    <path d="M 46.480059 222.446649
L 406.945838 222.446649
L 406.945838 24.174844
L 46.480059 24.174844
z
" style="fill: #ffffff"/>
   </g>
   <g id="matplotlib.axis_1">
    <g id="xtick_1">
     <g id="line2d_1">
      <defs>
       <path id="mf15192c876" d="M 0 0
L 0 3.5
" style="stroke: #000000; stroke-width: 0.8"/>
      </defs>
      <g>
       <use xlink:href="#mf15192c876" x="117.480894" y="222.446649" style="stroke: #000000; stroke-width: 0.8"/>
      </g>
     </g>
     <g id="text_1">
      <text style="font-size: 12px; font-family: 'Microsoft YaHei', 'SimHei', 'DejaVu Sans', sans-serif; text-anchor: middle" x="117.480894" y="239.19079" transform="rotate(-0 117.480894 239.19079)">20</text>
     </g>
    </g>
    <g id="xtick_2">
     <g id="line2d_2">
      <g>
       <use xlink:href="#mf15192c876" x="190.302264" y="222.446649" style="stroke: #000000; stroke-width: 0.8"/>
      </g>
     </g>
     <g id="text_2">
      <text style="font-size: 12px; font-family: 'Microsoft YaHei', 'SimHei', 'DejaVu Sans', sans-serif; text-anchor: middle" x="190.302264" y="239.19079" transform="rotate(-0 190.302264 239.19079)">40</text>
     </g>
    </g>
    <g id="xtick_3">
     <g id="line2d_3">
      <g>
       <use xlink:href="#mf15192c876" x="263.123633" y="222.446649" style="stroke: #000000; stroke-width: 0.8"/>
      </g>
     </g>
     <g id="text_3">
      <text style="font-size: 12px; font-family: 'Microsoft YaHei', 'SimHei', 'DejaVu Sans', sans-serif; text-anchor: middle" x="263.123633" y="239.19079" transform="rotate(-0 263.123633 239.19079)">60</text>
     </g>
    </g>
    <g id="xtick_4">
     <g id="line2d_4">
      <g>
       <use xlink:href="#mf15192c876" x="335.945003" y="222.446649" style="stroke: #000000; stroke-width: 0.8"/>
      </g>
     </g>
     <g id="text_4">
      <text style="font-size: 12px; font-family: 'Microsoft YaHei', 'SimHei', 'DejaVu Sans', sans-serif; text-anchor: middle" x="335.945003" y="239.19079" transform="rotate(-0 335.945003 239.19079)">80</text>
     </g>
    </g>
    <g id="text_5">
     <text style="font-size: 13px; font-family: 'Microsoft YaHei', 'SimHei', 'DejaVu Sans', sans-serif; text-anchor: middle; fill: #183153" x="226.712948" y="257.105086" transform="rotate(-0 226.712948 257.105086)">已实现分布分位点 / %</text>
    </g>
   </g>
   <g id="matplotlib.axis_2">
    <g id="ytick_1">
     <g id="line2d_5">
      <defs>
       <path id="m19a990a139" d="M 0 0
L -3.5 0
" style="stroke: #000000; stroke-width: 0.8"/>
      </defs>
      <g>
       <use xlink:href="#m19a990a139" x="46.480059" y="205.002604" style="stroke: #000000; stroke-width: 0.8"/>
      </g>
     </g>
     <g id="text_6">
      <text style="font-size: 12px; font-family: 'Microsoft YaHei', 'SimHei', 'DejaVu Sans', sans-serif; text-anchor: end" x="39.480059" y="209.874674" transform="rotate(-0 39.480059 209.874674)">0</text>
     </g>
    </g>
    <g id="ytick_2">
     <g id="line2d_6">
      <g>
       <use xlink:href="#m19a990a139" x="46.480059" y="177.757346" style="stroke: #000000; stroke-width: 0.8"/>
      </g>
     </g>
     <g id="text_7">
      <text style="font-size: 12px; font-family: 'Microsoft YaHei', 'SimHei', 'DejaVu Sans', sans-serif; text-anchor: end" x="39.480059" y="182.629417" transform="rotate(-0 39.480059 182.629417)">10</text>
     </g>
    </g>
    <g id="ytick_3">
     <g id="line2d_7">
      <g>
       <use xlink:href="#m19a990a139" x="46.480059" y="150.512089" style="stroke: #000000; stroke-width: 0.8"/>
      </g>
     </g>
     <g id="text_8">
      <text style="font-size: 12px; font-family: 'Microsoft YaHei', 'SimHei', 'DejaVu Sans', sans-serif; text-anchor: end" x="39.480059" y="155.384159" transform="rotate(-0 39.480059 155.384159)">20</text>
     </g>
    </g>
    <g id="ytick_4">
     <g id="line2d_8">
      <g>
       <use xlink:href="#m19a990a139" x="46.480059" y="123.266831" style="stroke: #000000; stroke-width: 0.8"/>
      </g>
     </g>
     <g id="text_9">
      <text style="font-size: 12px; font-family: 'Microsoft YaHei', 'SimHei', 'DejaVu Sans', sans-serif; text-anchor: end" x="39.480059" y="128.138902" transform="rotate(-0 39.480059 128.138902)">30</text>
     </g>
    </g>
    <g id="ytick_5">
     <g id="line2d_9">
      <g>
       <use xlink:href="#m19a990a139" x="46.480059" y="96.021574" style="stroke: #000000; stroke-width: 0.8"/>
      </g>
     </g>
     <g id="text_10">
      <text style="font-size: 12px; font-family: 'Microsoft YaHei', 'SimHei', 'DejaVu Sans', sans-serif; text-anchor: end" x="39.480059" y="100.893644" transform="rotate(-0 39.480059 100.893644)">40</text>
     </g>
    </g>
    <g id="ytick_6">
     <g id="line2d_10">
      <g>
       <use xlink:href="#m19a990a139" x="46.480059" y="68.776316" style="stroke: #000000; stroke-width: 0.8"/>
      </g>
     </g>
     <g id="text_11">
      <text style="font-size: 12px; font-family: 'Microsoft YaHei', 'SimHei', 'DejaVu Sans', sans-serif; text-anchor: end" x="39.480059" y="73.648387" transform="rotate(-0 39.480059 73.648387)">50</text>
     </g>
    </g>
    <g id="ytick_7">
     <g id="line2d_11">
      <g>
       <use xlink:href="#m19a990a139" x="46.480059" y="41.531059" style="stroke: #000000; stroke-width: 0.8"/>
      </g>
     </g>
     <g id="text_12">
      <text style="font-size: 12px; font-family: 'Microsoft YaHei', 'SimHei', 'DejaVu Sans', sans-serif; text-anchor: end" x="39.480059" y="46.403129" transform="rotate(-0 39.480059 46.403129)">60</text>
     </g>
    </g>
    <g id="text_13">
     <text style="font-size: 13px; font-family: 'Microsoft YaHei', 'SimHei', 'DejaVu Sans', sans-serif; text-anchor: middle; fill: #183153" x="18.111875" y="123.310746" transform="rotate(-90 18.111875 123.310746)">相对本校年 Q10 的偏移 / 分</text>
    </g>
   </g>
   <g id="line2d_12">
    <path d="M 62.864867 210.200712
L 81.070209 205.002604
L 135.686236 193.452049
L 226.712948 174.631312
L 317.73966 153.157747
L 372.355688 136.1438
L 390.56103 123.195133
" clip-path="url(#paa5d29fa20)" style="fill: none; stroke: #2f6f9f; stroke-width: 2; stroke-linecap: square"/>
    <defs>
     <path id="me212d0a667" d="M 0 3
C 0.795609 3 1.55874 2.683901 2.12132 2.12132
C 2.683901 1.55874 3 0.795609 3 0
C 3 -0.795609 2.683901 -1.55874 2.12132 -2.12132
C 1.55874 -2.683901 0.795609 -3 0 -3
C -0.795609 -3 -1.55874 -2.683901 -2.12132 -2.12132
C -2.683901 -1.55874 -3 -0.795609 -3 0
C -3 0.795609 -2.683901 1.55874 -2.12132 2.12132
C -1.55874 2.683901 -0.795609 3 0 3
z
" style="stroke: #2f6f9f"/>
    </defs>
    <g clip-path="url(#paa5d29fa20)">
     <use xlink:href="#me212d0a667" x="62.864867" y="210.200712" style="fill: #2f6f9f; stroke: #2f6f9f"/>
     <use xlink:href="#me212d0a667" x="81.070209" y="205.002604" style="fill: #2f6f9f; stroke: #2f6f9f"/>
     <use xlink:href="#me212d0a667" x="135.686236" y="193.452049" style="fill: #2f6f9f; stroke: #2f6f9f"/>
     <use xlink:href="#me212d0a667" x="226.712948" y="174.631312" style="fill: #2f6f9f; stroke: #2f6f9f"/>
     <use xlink:href="#me212d0a667" x="317.73966" y="153.157747" style="fill: #2f6f9f; stroke: #2f6f9f"/>
     <use xlink:href="#me212d0a667" x="372.355688" y="136.1438" style="fill: #2f6f9f; stroke: #2f6f9f"/>
     <use xlink:href="#me212d0a667" x="390.56103" y="123.195133" style="fill: #2f6f9f; stroke: #2f6f9f"/>
    </g>
   </g>
   <g id="line2d_13">
    <path d="M 62.864867 213.434294
L 81.070209 205.002604
L 135.686236 187.651677
L 226.712948 161.338494
L 317.73966 130.060221
L 372.355688 101.269871
L 390.56103 86.381771
" clip-path="url(#paa5d29fa20)" style="fill: none; stroke: #2a9d8f; stroke-width: 2; stroke-linecap: square"/>
    <defs>
     <path id="m5a92684e94" d="M 0 3
C 0.795609 3 1.55874 2.683901 2.12132 2.12132
C 2.683901 1.55874 3 0.795609 3 0
C 3 -0.795609 2.683901 -1.55874 2.12132 -2.12132
C 1.55874 -2.683901 0.795609 -3 0 -3
C -0.795609 -3 -1.55874 -2.683901 -2.12132 -2.12132
C -2.683901 -1.55874 -3 -0.795609 -3 0
C -3 0.795609 -2.683901 1.55874 -2.12132 2.12132
C -1.55874 2.683901 -0.795609 3 0 3
z
" style="stroke: #2a9d8f"/>
    </defs>
    <g clip-path="url(#paa5d29fa20)">
     <use xlink:href="#m5a92684e94" x="62.864867" y="213.434294" style="fill: #2a9d8f; stroke: #2a9d8f"/>
     <use xlink:href="#m5a92684e94" x="81.070209" y="205.002604" style="fill: #2a9d8f; stroke: #2a9d8f"/>
     <use xlink:href="#m5a92684e94" x="135.686236" y="187.651677" style="fill: #2a9d8f; stroke: #2a9d8f"/>
     <use xlink:href="#m5a92684e94" x="226.712948" y="161.338494" style="fill: #2a9d8f; stroke: #2a9d8f"/>
     <use xlink:href="#m5a92684e94" x="317.73966" y="130.060221" style="fill: #2a9d8f; stroke: #2a9d8f"/>
     <use xlink:href="#m5a92684e94" x="372.355688" y="101.269871" style="fill: #2a9d8f; stroke: #2a9d8f"/>
     <use xlink:href="#m5a92684e94" x="390.56103" y="86.381771" style="fill: #2a9d8f; stroke: #2a9d8f"/>
    </g>
   </g>
   <g id="line2d_14">
    <path d="M 62.864867 213.22386
L 81.070209 205.002604
L 135.686236 177.51895
L 226.712948 133.892482
L 317.73966 76.609328
L 372.355688 50.290409
L 390.56103 33.187199
" clip-path="url(#paa5d29fa20)" style="fill: none; stroke: #d95d39; stroke-width: 2; stroke-linecap: square"/>
    <defs>
     <path id="m87aa29fe77" d="M 0 3
C 0.795609 3 1.55874 2.683901 2.12132 2.12132
C 2.683901 1.55874 3 0.795609 3 0
C 3 -0.795609 2.683901 -1.55874 2.12132 -2.12132
C 1.55874 -2.683901 0.795609 -3 0 -3
C -0.795609 -3 -1.55874 -2.683901 -2.12132 -2.12132
C -2.683901 -1.55874 -3 -0.795609 -3 0
C -3 0.795609 -2.683901 1.55874 -2.12132 2.12132
C -1.55874 2.683901 -0.795609 3 0 3
z
" style="stroke: #d95d39"/>
    </defs>
    <g clip-path="url(#paa5d29fa20)">
     <use xlink:href="#m87aa29fe77" x="62.864867" y="213.22386" style="fill: #d95d39; stroke: #d95d39"/>
     <use xlink:href="#m87aa29fe77" x="81.070209" y="205.002604" style="fill: #d95d39; stroke: #d95d39"/>
     <use xlink:href="#m87aa29fe77" x="135.686236" y="177.51895" style="fill: #d95d39; stroke: #d95d39"/>
     <use xlink:href="#m87aa29fe77" x="226.712948" y="133.892482" style="fill: #d95d39; stroke: #d95d39"/>
     <use xlink:href="#m87aa29fe77" x="317.73966" y="76.609328" style="fill: #d95d39; stroke: #d95d39"/>
     <use xlink:href="#m87aa29fe77" x="372.355688" y="50.290409" style="fill: #d95d39; stroke: #d95d39"/>
     <use xlink:href="#m87aa29fe77" x="390.56103" y="33.187199" style="fill: #d95d39; stroke: #d95d39"/>
    </g>
   </g>
   <g id="line2d_15">
    <path d="M 46.480059 205.002604
L 406.945838 205.002604
" clip-path="url(#paa5d29fa20)" style="fill: none; stroke: #a8b3c2; stroke-width: 0.7; stroke-linecap: square"/>
   </g>
   <g id="patch_3">
    <path d="M 46.480059 222.446649
L 46.480059 24.174844
" style="fill: none; stroke: #000000; stroke-width: 0.8; stroke-linejoin: miter; stroke-linecap: square"/>
   </g>
   <g id="patch_4">
    <path d="M 46.480059 222.446649
L 406.945838 222.446649
" style="fill: none; stroke: #000000; stroke-width: 0.8; stroke-linejoin: miter; stroke-linecap: square"/>
   </g>
   <g id="text_14">
    <text style="font-size: 13px; font-family: 'Microsoft YaHei', 'SimHei', 'DejaVu Sans', sans-serif; text-anchor: middle; fill: #183153" x="226.712948" y="18.174844" transform="rotate(-0 226.712948 18.174844)">聚类描述宽窄，不描述学校难度</text>
   </g>
   <g id="legend_1">
    <g id="patch_5">
     <path d="M 54.180059 85.537012
L 192.24209 85.537012
Q 194.44209 85.537012 194.44209 83.337012
L 194.44209 31.874844
Q 194.44209 29.674844 192.24209 29.674844
L 54.180059 29.674844
Q 51.980059 29.674844 51.980059 31.874844
L 51.980059 83.337012
Q 51.980059 85.537012 54.180059 85.537012
z
" style="fill: #ffffff; opacity: 0.8; stroke: #cccccc; stroke-linejoin: miter"/>
    </g>
    <g id="line2d_16">
     <path d="M 56.380059 39.457969
L 67.380059 39.457969
L 78.380059 39.457969
" style="fill: none; stroke: #2f6f9f; stroke-width: 2; stroke-linecap: square"/>
     <g>
      <use xlink:href="#me212d0a667" x="67.380059" y="39.457969" style="fill: #2f6f9f; stroke: #2f6f9f"/>
     </g>
    </g>
    <g id="text_15">
     <text style="font-size: 11px; font-family: 'Microsoft YaHei', 'SimHei', 'DejaVu Sans', sans-serif; text-anchor: start; fill: #183153" x="87.180059" y="43.307969" transform="rotate(-0 87.180059 43.307969)">形状类 1（19 校年）</text>
    </g>
    <g id="line2d_17">
     <path d="M 56.380059 56.978691
L 67.380059 56.978691
L 78.380059 56.978691
" style="fill: none; stroke: #2a9d8f; stroke-width: 2; stroke-linecap: square"/>
     <g>
      <use xlink:href="#m5a92684e94" x="67.380059" y="56.978691" style="fill: #2a9d8f; stroke: #2a9d8f"/>
     </g>
    </g>
    <g id="text_16">
     <text style="font-size: 11px; font-family: 'Microsoft YaHei', 'SimHei', 'DejaVu Sans', sans-serif; text-anchor: start; fill: #183153" x="87.180059" y="60.828691" transform="rotate(-0 87.180059 60.828691)">形状类 2（38 校年）</text>
    </g>
    <g id="line2d_18">
     <path d="M 56.380059 74.499414
L 67.380059 74.499414
L 78.380059 74.499414
" style="fill: none; stroke: #d95d39; stroke-width: 2; stroke-linecap: square"/>
     <g>
      <use xlink:href="#m87aa29fe77" x="67.380059" y="74.499414" style="fill: #d95d39; stroke: #d95d39"/>
     </g>
    </g>
    <g id="text_17">
     <text style="font-size: 11px; font-family: 'Microsoft YaHei', 'SimHei', 'DejaVu Sans', sans-serif; text-anchor: start; fill: #183153" x="87.180059" y="78.349414" transform="rotate(-0 87.180059 78.349414)">形状类 3（20 校年）</text>
    </g>
   </g>
  </g>
  <g id="axes_2">
   <g id="patch_6">
    <path d="M 461.53374 222.446649
L 821.99952 222.446649
L 821.99952 24.174844
L 461.53374 24.174844
z
" style="fill: #ffffff"/>
   </g>
   <g id="patch_7">
    <path d="M 477.918549 222.446649
L 523.118019 222.446649
L 523.118019 222.416783
L 477.918549 222.416783
z
" clip-path="url(#p643406fac4)" style="fill: #2a9d8f"/>
   </g>
   <g id="patch_8">
    <path d="M 534.417887 222.446649
L 579.617358 222.446649
L 579.617358 215.728256
L 534.417887 215.728256
z
" clip-path="url(#p643406fac4)" style="fill: #2a9d8f"/>
   </g>
   <g id="patch_9">
    <path d="M 590.917226 222.446649
L 636.116696 222.446649
L 636.116696 186.933893
L 590.917226 186.933893
z
" clip-path="url(#p643406fac4)" style="fill: #2a9d8f"/>
   </g>
   <g id="patch_10">
    <path d="M 647.416564 222.446649
L 692.616035 222.446649
L 692.616035 94.6154
L 647.416564 94.6154
z
" clip-path="url(#p643406fac4)" style="fill: #2a9d8f"/>
   </g>
   <g id="patch_11">
    <path d="M 703.915903 222.446649
L 749.115373 222.446649
L 749.115373 58.184129
L 703.915903 58.184129
z
" clip-path="url(#p643406fac4)" style="fill: #2a9d8f"/>
   </g>
   <g id="patch_12">
    <path d="M 760.415241 222.446649
L 805.614712 222.446649
L 805.614712 49.906515
L 760.415241 49.906515
z
" clip-path="url(#p643406fac4)" style="fill: #2a9d8f"/>
   </g>
   <g id="patch_13">
    <path d="M 477.918549 222.416783
L 523.118019 222.416783
L 523.118019 216.526496
L 477.918549 216.526496
z
" clip-path="url(#p643406fac4)" style="fill: #708090"/>
   </g>
   <g id="patch_14">
    <path d="M 534.417887 215.728256
L 579.617358 215.728256
L 579.617358 205.048804
L 534.417887 205.048804
z
" clip-path="url(#p643406fac4)" style="fill: #708090"/>
   </g>
   <g id="patch_15">
    <path d="M 590.917226 186.933893
L 636.116696 186.933893
L 636.116696 169.441018
L 590.917226 169.441018
z
" clip-path="url(#p643406fac4)" style="fill: #708090"/>
   </g>
   <g id="patch_16">
    <path d="M 647.416564 94.6154
L 692.616035 94.6154
L 692.616035 77.599835
L 647.416564 77.599835
z
" clip-path="url(#p643406fac4)" style="fill: #708090"/>
   </g>
   <g id="patch_17">
    <path d="M 703.915903 58.184129
L 749.115373 58.184129
L 749.115373 53.910248
L 703.915903 53.910248
z
" clip-path="url(#p643406fac4)" style="fill: #708090"/>
   </g>
   <g id="patch_18">
    <path d="M 760.415241 49.906515
L 805.614712 49.906515
L 805.614712 33.616358
L 760.415241 33.616358
z
" clip-path="url(#p643406fac4)" style="fill: #708090"/>
   </g>
   <g id="matplotlib.axis_3">
    <g id="xtick_5">
     <g id="line2d_19">
      <g>
       <use xlink:href="#mf15192c876" x="500.518284" y="222.446649" style="stroke: #000000; stroke-width: 0.8"/>
      </g>
     </g>
     <g id="text_18">
      <text style="font-size: 12px; font-family: 'Microsoft YaHei', 'SimHei', 'DejaVu Sans', sans-serif; text-anchor: middle" x="500.518284" y="239.19079" transform="rotate(-0 500.518284 239.19079)">Q05</text>
     </g>
    </g>
    <g id="xtick_6">
     <g id="line2d_20">
      <g>
       <use xlink:href="#mf15192c876" x="557.017623" y="222.446649" style="stroke: #000000; stroke-width: 0.8"/>
      </g>
     </g>
     <g id="text_19">
      <text style="font-size: 12px; font-family: 'Microsoft YaHei', 'SimHei', 'DejaVu Sans', sans-serif; text-anchor: middle" x="557.017623" y="239.19079" transform="rotate(-0 557.017623 239.19079)">Q25</text>
     </g>
    </g>
    <g id="xtick_7">
     <g id="line2d_21">
      <g>
       <use xlink:href="#mf15192c876" x="613.516961" y="222.446649" style="stroke: #000000; stroke-width: 0.8"/>
      </g>
     </g>
     <g id="text_20">
      <text style="font-size: 12px; font-family: 'Microsoft YaHei', 'SimHei', 'DejaVu Sans', sans-serif; text-anchor: middle" x="613.516961" y="239.19079" transform="rotate(-0 613.516961 239.19079)">Q50</text>
     </g>
    </g>
    <g id="xtick_8">
     <g id="line2d_22">
      <g>
       <use xlink:href="#mf15192c876" x="670.016299" y="222.446649" style="stroke: #000000; stroke-width: 0.8"/>
      </g>
     </g>
     <g id="text_21">
      <text style="font-size: 12px; font-family: 'Microsoft YaHei', 'SimHei', 'DejaVu Sans', sans-serif; text-anchor: middle" x="670.016299" y="239.19079" transform="rotate(-0 670.016299 239.19079)">Q75</text>
     </g>
    </g>
    <g id="xtick_9">
     <g id="line2d_23">
      <g>
       <use xlink:href="#mf15192c876" x="726.515638" y="222.446649" style="stroke: #000000; stroke-width: 0.8"/>
      </g>
     </g>
     <g id="text_22">
      <text style="font-size: 12px; font-family: 'Microsoft YaHei', 'SimHei', 'DejaVu Sans', sans-serif; text-anchor: middle" x="726.515638" y="239.19079" transform="rotate(-0 726.515638 239.19079)">Q90</text>
     </g>
    </g>
    <g id="xtick_10">
     <g id="line2d_24">
      <g>
       <use xlink:href="#mf15192c876" x="783.014976" y="222.446649" style="stroke: #000000; stroke-width: 0.8"/>
      </g>
     </g>
     <g id="text_23">
      <text style="font-size: 12px; font-family: 'Microsoft YaHei', 'SimHei', 'DejaVu Sans', sans-serif; text-anchor: middle" x="783.014976" y="239.19079" transform="rotate(-0 783.014976 239.19079)">Q95</text>
     </g>
    </g>
   </g>
   <g id="matplotlib.axis_4">
    <g id="ytick_8">
     <g id="line2d_25">
      <g>
       <use xlink:href="#m19a990a139" x="461.53374" y="222.446649" style="stroke: #000000; stroke-width: 0.8"/>
      </g>
     </g>
     <g id="text_24">
      <text style="font-size: 12px; font-family: 'Microsoft YaHei', 'SimHei', 'DejaVu Sans', sans-serif; text-anchor: end" x="454.53374" y="227.318719" transform="rotate(-0 454.53374 227.318719)">0</text>
     </g>
    </g>
    <g id="ytick_9">
     <g id="line2d_26">
      <g>
       <use xlink:href="#m19a990a139" x="461.53374" y="195.576836" style="stroke: #000000; stroke-width: 0.8"/>
      </g>
     </g>
     <g id="text_25">
      <text style="font-size: 12px; font-family: 'Microsoft YaHei', 'SimHei', 'DejaVu Sans', sans-serif; text-anchor: end" x="454.53374" y="200.448906" transform="rotate(-0 454.53374 200.448906)">25</text>
     </g>
    </g>
    <g id="ytick_10">
     <g id="line2d_27">
      <g>
       <use xlink:href="#m19a990a139" x="461.53374" y="168.707022" style="stroke: #000000; stroke-width: 0.8"/>
      </g>
     </g>
     <g id="text_26">
      <text style="font-size: 12px; font-family: 'Microsoft YaHei', 'SimHei', 'DejaVu Sans', sans-serif; text-anchor: end" x="454.53374" y="173.579093" transform="rotate(-0 454.53374 173.579093)">50</text>
     </g>
    </g>
    <g id="ytick_11">
     <g id="line2d_28">
      <g>
       <use xlink:href="#m19a990a139" x="461.53374" y="141.837209" style="stroke: #000000; stroke-width: 0.8"/>
      </g>
     </g>
     <g id="text_27">
      <text style="font-size: 12px; font-family: 'Microsoft YaHei', 'SimHei', 'DejaVu Sans', sans-serif; text-anchor: end" x="454.53374" y="146.709279" transform="rotate(-0 454.53374 146.709279)">75</text>
     </g>
    </g>
    <g id="ytick_12">
     <g id="line2d_29">
      <g>
       <use xlink:href="#m19a990a139" x="461.53374" y="114.967396" style="stroke: #000000; stroke-width: 0.8"/>
      </g>
     </g>
     <g id="text_28">
      <text style="font-size: 12px; font-family: 'Microsoft YaHei', 'SimHei', 'DejaVu Sans', sans-serif; text-anchor: end" x="454.53374" y="119.839466" transform="rotate(-0 454.53374 119.839466)">100</text>
     </g>
    </g>
    <g id="ytick_13">
     <g id="line2d_30">
      <g>
       <use xlink:href="#m19a990a139" x="461.53374" y="88.097582" style="stroke: #000000; stroke-width: 0.8"/>
      </g>
     </g>
     <g id="text_29">
      <text style="font-size: 12px; font-family: 'Microsoft YaHei', 'SimHei', 'DejaVu Sans', sans-serif; text-anchor: end" x="454.53374" y="92.969653" transform="rotate(-0 454.53374 92.969653)">125</text>
     </g>
    </g>
    <g id="ytick_14">
     <g id="line2d_31">
      <g>
       <use xlink:href="#m19a990a139" x="461.53374" y="61.227769" style="stroke: #000000; stroke-width: 0.8"/>
      </g>
     </g>
     <g id="text_30">
      <text style="font-size: 12px; font-family: 'Microsoft YaHei', 'SimHei', 'DejaVu Sans', sans-serif; text-anchor: end" x="454.53374" y="66.099839" transform="rotate(-0 454.53374 66.099839)">150</text>
     </g>
    </g>
    <g id="ytick_15">
     <g id="line2d_32">
      <g>
       <use xlink:href="#m19a990a139" x="461.53374" y="34.357956" style="stroke: #000000; stroke-width: 0.8"/>
      </g>
     </g>
     <g id="text_31">
      <text style="font-size: 12px; font-family: 'Microsoft YaHei', 'SimHei', 'DejaVu Sans', sans-serif; text-anchor: end" x="454.53374" y="39.230026" transform="rotate(-0 454.53374 39.230026)">175</text>
     </g>
    </g>
    <g id="text_32">
     <text style="font-size: 13px; font-family: 'Microsoft YaHei', 'SimHei', 'DejaVu Sans', sans-serif; text-anchor: middle; fill: #183153" x="426.128682" y="123.310746" transform="rotate(-90 426.128682 123.310746)">形状坐标方差 / 分²</text>
    </g>
   </g>
   <g id="patch_19">
    <path d="M 461.53374 222.446649
L 461.53374 24.174844
" style="fill: none; stroke: #000000; stroke-width: 0.8; stroke-linejoin: miter; stroke-linecap: square"/>
   </g>
   <g id="patch_20">
    <path d="M 461.53374 222.446649
L 821.99952 222.446649
" style="fill: none; stroke: #000000; stroke-width: 0.8; stroke-linejoin: miter; stroke-linecap: square"/>
   </g>
   <g id="text_33">
    <text style="font-size: 13px; font-family: 'Microsoft YaHei', 'SimHei', 'DejaVu Sans', sans-serif; text-anchor: middle; fill: #183153" x="641.76663" y="18.174844" transform="rotate(-0 641.76663 18.174844)">单因子也保留各分位的独特差异</text>
   </g>
   <g id="legend_2">
    <g id="patch_21">
     <path d="M 469.23374 68.122852
L 570.43374 68.122852
Q 572.63374 68.122852 572.63374 65.922852
L 572.63374 31.874844
Q 572.63374 29.674844 570.43374 29.674844
L 469.23374 29.674844
Q 467.03374 29.674844 467.03374 31.874844
L 467.03374 65.922852
Q 467.03374 68.122852 469.23374 68.122852
z
" style="fill: #ffffff; opacity: 0.8; stroke: #cccccc; stroke-linejoin: miter"/>
    </g>
    <g id="patch_22">
     <path d="M 471.43374 43.36125
L 493.43374 43.36125
L 493.43374 35.66125
L 471.43374 35.66125
z
" style="fill: #2a9d8f"/>
    </g>
    <g id="text_34">
     <text style="font-size: 11px; font-family: 'Microsoft YaHei', 'SimHei', 'DejaVu Sans', sans-serif; text-anchor: start; fill: #183153" x="502.23374" y="43.36125" transform="rotate(-0 502.23374 43.36125)">共同因子方差</text>
    </g>
    <g id="patch_23">
     <path d="M 471.43374 60.935254
L 493.43374 60.935254
L 493.43374 53.235254
L 471.43374 53.235254
z
" style="fill: #708090"/>
    </g>
    <g id="text_35">
     <text style="font-size: 11px; font-family: 'Microsoft YaHei', 'SimHei', 'DejaVu Sans', sans-serif; text-anchor: start; fill: #183153" x="502.23374" y="60.935254" transform="rotate(-0 502.23374 60.935254)">独特方差</text>
    </g>
   </g>
  </g>
 </g>
 <defs>
  <clipPath id="paa5d29fa20">
   <rect x="46.480059" y="24.174844" width="360.46578" height="198.271805"/>
  </clipPath>
  <clipPath id="p643406fac4">
   <rect x="461.53374" y="24.174844" width="360.46578" height="198.271805"/>
  </clipPath>
 </defs>
</svg>
